# xmcd
# Track frame offsets:
# 150
# 11227
# 21683
# 35686
# 50794
# 68061
# 79580
# 93387
# 105886
# 122225
# 138440
# 149742
#
# Disc length: 2171 seconds
# Revision: 0
# Processed by: cddbd v1.4PL0 Copyright (c) Steve Scherf et al.
# Submitted via: VisiTrax 2.9.5.180 - For more info visit www.synapsa.com
#
DISCID=af08790c
DTITLE=Shayne Weems - Whoop it on me
DYEAR=1900
DGENRE=
TTITLE0=Raisin' cane in Texas
TTITLE1=I don't need a thing at all
TTITLE2=Whoop it on me
TTITLE3=Oo-la-la
TTITLE4=Old Hank
TTITLE5=Don't worry 'bout me
TTITLE6=Unsolved mystery
TTITLE7=Valentine
TTITLE8=You beat all I've ever seen
TTITLE9=You've got me believin' in love
TTITLE10=Hello darlin'
TTITLE11=Peace in the valley
EXTD=
EXTT0=
EXTT1=
EXTT2=
EXTT3=
EXTT4=
EXTT5=
EXTT6=
EXTT7=
EXTT8=
EXTT9=
EXTT10=
EXTT11=
PLAYORDER=
